# xmcd
#
# Track frame offsets: 
#        150
#        18987
#        40943
#        59044
#
# Disc length: 1077 seconds
#
# Revision: 3
# Processed by: cddbd v1.5.2PL0 Copyright (c) Steve Scherf et al.
# Submitted via: ExactAudioCopy v1.1
#
DISCID=30043304
DTITLE=やなぎなぎ - オラリオン
DYEAR=2015
DGENRE=Anime
TTITLE0=オラリオン
TTITLE1=zoon politikon
TTITLE2=オラリオン <instrumental>
TTITLE3=zoon politikon <instrumental>
EXTD=
EXTT0=
EXTT1=
EXTT2=
EXTT3=
PLAYORDER=
